PathFileType	4	(X/Y/Z)	C:/Users/beibeiliu/ov580/test_trc/User1\sequence.31_training_dense_left.trc
DataRate	CameraRate	NumFrames	NumMarkers	Units	OrigDataRate	OrigDataStartFrame	OrigNumFrames
120	120	15	19	mm	120	193	256
Frame#	Time	ThumbCMC			ThumbMCP			ThumbIP			ThumbTip			IndexMCP			IndexPIP			IndexTip			MiddleMCP			MiddlePIP			MiddleTip			RingMCP			RingPIP			RingTip			PinkyMCP			PinkyPIP			PinkyTip			BackHand1			BackHand2			BackHand3	
		X0	Y0	Z0	X1	Y1	Z1	X2	Y2	Z2	X3	Y3	Z3	X4	Y4	Z4	X5	Y5	Z5	X6	Y6	Z6	X7	Y7	Z7	X8	Y8	Z8	X9	Y9	Z9	X10	Y10	Z10	X11	Y11	Z11	X12	Y12	Z12	X13	Y13	Z13	X14	Y14	Z14	X15	Y15	Z15	X16	Y16	Z16	X17	Y17	Z17	X18	Y18	Z18	
192	1.6	-191.857	8.50947	5.28279	-162.275	18.9292	-16.8371	-143.364	15.6244	-37.3947	-118.116	9.19092	-52.7239	-185.255	-33.7054	-69.7914	-167.078	-40.3332	-91.6249	-138.361	-27.0521	-106.286	-175.753	-60.3659	-62.8591	-153.855	-66.7884	-90.6129	-122.014	-54.4748	-102.498	-152.263	-70.5158	-53.0593	-126.237	-66.6852	-74.1232	-101.805	-46.1978	-75.9008	-132.39	-70.7417	-23.3319	-110.903	-56.2201	-32.0726	-98.1523	-27.153	-30.8767	-185.056	-64.1535	0.512515	-199.438	-56.1838	31.3845	-207.83	-33.4277	2.70686	
193	1.60833	-192.647	9.08859	6.03955	-160.829	16.064	-14.7465	-141.287	15.1052	-38.7851	-118.619	11.4499	-52.5889	-184.429	-33.6699	-71.4495	-166.547	-37.1503	-94.7649	-134.948	-30.4077	-104.307	-174.663	-60.7266	-68.4542	-154.399	-66.1708	-91.8978	-120.659	-54.0997	-101.845	-152.171	-71.9671	-54.25	-127.391	-66.5628	-74.6183	-103.619	-52.1556	-75.031	-137.128	-69.1801	-25.3344	-111.338	-56.7574	-33.1314	-98.0386	-25.4725	-30.4984	-183.709	-65.5523	-3.1861	-199.291	-61.2854	30.3901	-208.637	-31.8691	0.19558	
194	1.61667	-189.796	5.60847	1.94938	-160.915	18.139	-17.4629	-142.223	17.1837	-35.6172	-120.666	9.18321	-52.6758	-183.542	-34.719	-70.4497	-164.484	-37.9153	-97.6565	-139.806	-31.3498	-107.169	-176.439	-60.2546	-67.7206	-153.958	-66.6129	-95.238	-122.767	-58.1995	-103.579	-156.278	-72.5117	-51.9105	-131.191	-71.7138	-74.167	-102.32	-52.5032	-77.7298	-136.775	-72.754	-25.6204	-112.777	-56.8646	-35.4413	-99.5926	-30.4419	-35.5143	-185.709	-65.2924	-1.13748	-198.119	-57.7793	29.7594	-208.309	-33.5377	2.17457	
195	1.625	-190.631	6.80595	4.10511	-162.634	18.0485	-15.2811	-144.046	21.0757	-39.1899	-121.913	19.6752	-51.7836	-185.816	-34.0401	-69.2768	-166.423	-40.9335	-98.932	-140.351	-34.9607	-110.125	-177.374	-63.9034	-68.1109	-159.12	-72.2299	-92.312	-124.615	-61.1343	-109.184	-157.013	-76.4204	-51.1661	-133.869	-77.515	-75.0391	-107.551	-62.9617	-80.8626	-136.257	-75.1383	-27.4101	-116.474	-65.8296	-38.4708	-100.373	-37.1536	-41.5179	-187.085	-65.9229	-3.05946	-198.542	-58.2723	25.8509	-207.447	-35.4106	-3.16056	
196	1.63333	-190.654	4.08127	2.03849	-165.309	19.691	-14.6083	-147.256	27.5586	-36.1085	-123.503	27.1714	-56.7676	-186.682	-34.3592	-71.1487	-171.465	-42.825	-96.0232	-143.595	-41.2212	-113.465	-178.794	-64.3188	-65.5413	-159.17	-74.4545	-95.521	-130.621	-66.3675	-116.136	-160.076	-78.2301	-54.0135	-138.331	-77.4422	-80.8827	-112.219	-67.5249	-87.9853	-139.144	-78.6837	-27.6682	-116.359	-72.6315	-41.2194	-97.4025	-49.9009	-47.4504	-185.85	-67.8225	-2.32136	-199.375	-61.2	28.0683	-208.602	-32.1577	-0.63304	
197	1.64167	-192.992	7.93895	0.220729	-167.582	21.9722	-14.2576	-149.669	28.5179	-38.3068	-128.947	34.9919	-54.5373	-187.191	-34.8915	-73.8037	-172.263	-43.5796	-100.227	-151.762	-43.3553	-117.133	-179.563	-66.8023	-65.86	-167.964	-72.604	-95.6605	-138.717	-74.0022	-120.248	-164.08	-78.8867	-54.2981	-145.889	-82.7077	-80.6061	-118.214	-78.7673	-91.0656	-141.466	-83.2766	-28.2044	-118.981	-80.8088	-41.8143	-99.6562	-66.0377	-55.0354	-186.982	-66.3253	-4.37444	-198.283	-59.0533	30.0595	-206.036	-35.2966	-3.03734	
198	1.65	-193.898	9.56463	3.43731	-169.063	21.7715	-15.3188	-154.236	32.7503	-34.5812	-134.084	38.1052	-54.612	-186.523	-34.749	-69.9665	-177.558	-41.0538	-99.8443	-156.065	-48.1071	-119.084	-180.284	-68.8023	-69.0133	-167.723	-78.4554	-97.0046	-146.364	-79.8702	-121.625	-165.665	-82.3352	-51.1366	-148.209	-90.6514	-79.7304	-127.709	-85.5728	-95.5595	-143.8	-86.9024	-24.4654	-121.749	-89.4073	-40.5161	-101.153	-79.8226	-56.2534	-186.501	-68.8386	-5.56826	-198.316	-58.8564	27.2874	-207.311	-34.1603	-0.100907	
199	1.65833	-191.776	4.17888	1.26765	-171.174	21.9262	-18.1139	-155.586	34.2301	-40.1542	-139.223	40.8192	-52.6576	-186.012	-38.9135	-71.9616	-177.466	-44.4631	-97.6164	-161.174	-49.012	-121.207	-182.9	-66.8726	-68.6247	-172.586	-78.0643	-93.0849	-153.763	-86.6414	-118.166	-167.98	-81.6845	-51.888	-154.233	-91.0745	-78.3867	-130.73	-93.086	-97.2163	-140.435	-91.3094	-26.4933	-125.563	-92.58	-39.6024	-102.552	-89.8318	-54.4817	-187.122	-65.1328	-5.79912	-198.976	-60.2394	27.877	-207.949	-32.2904	-5.17501	
200	1.66667	-193.087	5.45324	0.118545	-173.375	23.6687	-18.4757	-158.719	36.5636	-39.032	-142.348	41.221	-54.3426	-185.878	-40.5935	-72.6626	-179.874	-44.8193	-96.3598	-165.582	-51.4574	-121.732	-182.025	-69.1177	-62.7915	-175.733	-78.2766	-96.9187	-157.479	-90.4463	-118.26	-169.522	-80.2504	-49.9462	-157.474	-94.167	-75.6234	-136.523	-96.1209	-98.3233	-144.687	-89.7166	-24.3652	-125.545	-95.4536	-38.1784	-103.016	-97.8538	-55.8755	-187.272	-67.1757	-0.671978	-198.885	-61.3691	29.7558	-207.008	-35.9341	1.16965	
201	1.675	-193.747	6.59024	-0.511916	-176.048	28.1795	-15.0918	-162.422	36.169	-35.9629	-145.984	45.0462	-52.3212	-184.746	-40.8803	-69.5243	-178.168	-49.3358	-98.8033	-167.388	-55.2389	-118.489	-184.22	-67.5575	-65.7624	-175.826	-80.4568	-95.9229	-162.785	-92.2073	-118.832	-168.556	-87.0408	-50.7036	-155.815	-98.3033	-77.1348	-136.838	-102.314	-98.7558	-143.257	-93.0461	-23.2019	-122.692	-99.9858	-37.7552	-105.034	-100.622	-53.5003	-187.087	-69.0793	-4.45138	-200.581	-58.3613	29.7118	-208.05	-34.889	0.627041	
202	1.68333	-194.614	6.80915	3.33076	-174.024	20.9759	-18.9963	-161.981	34.1512	-38.118	-146.784	47.6016	-53.4176	-186.168	-38.0107	-68.7367	-180.71	-47.8574	-98.2268	-168.031	-58.6736	-117.502	-184.05	-66.6709	-64.2804	-178.062	-79.8317	-96.3659	-163.242	-94.3673	-116.418	-170.146	-82.6324	-51.7502	-160.194	-94.5762	-75.6423	-140.392	-100.339	-96.0468	-141.449	-92.6039	-25.2855	-126.487	-98.8259	-35.2276	-105.641	-102.391	-53.0129	-187.047	-66.6283	-5.19947	-201.859	-59.0353	26.7948	-205.113	-35.7039	-3.60293	
203	1.69167	-194.754	7.14503	-1.13606	-173.961	25.8143	-20.0825	-161.265	37.4357	-39.8144	-146.443	43.9626	-53.8986	-185.892	-41.0203	-68.9321	-182.257	-47.2221	-95.2086	-168.544	-59.6744	-117.677	-183.329	-67.5733	-63.372	-177.789	-79.5284	-94.3701	-162.179	-89.6996	-119.115	-168.029	-85.3959	-48.8486	-155.749	-95.8542	-79.4173	-135.164	-102.521	-97.4418	-144.069	-90.0228	-21.9065	-123	-96.9204	-36.9	-105.746	-97.4113	-52.4668	-186.003	-69.2684	-4.09182	-200.332	-62.5909	29.7993	-206.443	-32.6316	-4.29235	
204	1.7	-194.111	3.99844	-0.562795	-174.016	24.6085	-19.3506	-160.046	33.5381	-35.656	-142.649	44.3642	-55.9055	-187.336	-39.1365	-73.7188	-179.298	-52.6198	-96.7495	-166.276	-60.4382	-120.75	-183.025	-70.4667	-63.0882	-177.273	-81.6197	-91.2439	-156.919	-92.7658	-116.086	-169.011	-82.8531	-50.3922	-153.986	-95.907	-78.8889	-134.289	-99.5551	-93.4106	-143.817	-90.3114	-21.6811	-122.807	-95.894	-35.4266	-101.618	-96.4854	-50.6801	-188.556	-65.5302	-4.10038	-201.332	-58.157	26.8566	-207.823	-34.3338	-2.59369	
205	1.70833	-194.523	8.25625	-2.25242	-173.315	24.2885	-16.0607	-157.252	32.9392	-40.1964	-141.717	44.9634	-54.2605	-186.83	-39.3701	-68.5747	-181.16	-48.6832	-98.636	-165.808	-59.711	-118.984	-184.532	-67.6773	-64.5967	-175.172	-83.3903	-91.9144	-152.688	-90.9232	-117.834	-168.099	-87.4233	-51.0662	-152.403	-97.523	-77.6585	-132.987	-94.5041	-93.7831	-142.069	-91.0588	-26.1005	-122.033	-94.8016	-35.6666	-103.95	-91.9949	-53.4334	-190.273	-66.466	-4.35328	-199.803	-61.8124	29.0658	-207.048	-35.5459	-2.02047	
206	1.71667	-193.188	6.7179	-2.66903	-171.368	23.4718	-17.7091	-155.769	31.5055	-38.7559	-137.924	43.6372	-57.5142	-186.025	-41.838	-68.9089	-179.416	-49.6146	-100.044	-164.225	-57.307	-120.506	-183.821	-68.0107	-66.0468	-172.779	-84.0654	-92.248	-151.433	-87.4634	-116.661	-167.812	-85.1134	-48.3717	-152.308	-94.4726	-77.4604	-124.28	-92.864	-91.4641	-143.941	-88.2066	-21.7698	-121.633	-92.0835	-37.2517	-99.5975	-86.1498	-56.205	-190.064	-65.3475	-4.65551	-201.316	-60.4463	30.5435	-206.516	-32.7744	-5.132	
